<svg width="43" height="38" viewBox="0 0 43 38" fill="none" xmlns="http://www.w3.org/2000/svg">
<path d="M21.5 0C9.632 0 0 8.512 0 19C0 29.488 9.632 38 21.5 38C33.368 38 43 29.488 43 19C43 8.512 33.368 0 21.5 0ZM21.5 5.7C25.069 5.7 27.95 8.246 27.95 11.4C27.95 14.554 25.069 17.1 21.5 17.1C17.931 17.1 15.05 14.554 15.05 11.4C15.05 8.246 17.931 5.7 21.5 5.7ZM21.5 32.68C16.125 32.68 11.3735 30.248 8.6 26.562C8.6645 22.781 17.2 20.71 21.5 20.71C25.7785 20.71 34.3355 22.781 34.4 26.562C31.6265 30.248 26.875 32.68 21.5 32.68Z" fill="#3EB6AF"/>
</svg>
